<svg xmlns="http://www.w3.org/2000/svg" xmlns:xlink="http://www.w3.org/1999/xlink" width="28" height="28" viewBox="0 0 28 28">
    <defs>
        <path id="a" d="M16.858 23.661c.691 0 2.614-.957 1.902-1.398-.451-.276-.98-.646-1.958-1.345-.438-.313-.63-.229-.765-.229-.403 0 .252-.608.036-1.099-.239-.535-.374-1.355-.574-1.541-.202-.19-.12-1.18.303-1.574.46-.432 1.123-1.686 1.488-2.166.433-.573.73-1.833.56-1.995-.175-.16-.963-1.69-1.306-2.014-.224-.207-.589-.718-.956-1.135l-.086-.114-.37.197c-.372.2-.83.61-.83.61s-.319.1-1.058-.04c-.397-.074-.54-.336-.54-.633s-.208-.222-.208-.222-3.727.169-4 .316c-.272.149-1.463 1.674-1.463 1.674s-.633 5.8-.145 6.259c.584.545 3.63 5.03 4.2 5.566.567.725 5.08.883 5.77.883M9.666 10.822c-.385.065-1.006-.037-1.299.46l-.554 2.255s.06 2.265.113 2.713c.052.447.677 1.907 1.025 2.236.309.289.909 1.242 1.452 1.745.146.134.445.2.57.358.226.286.085.089-.32-.471-1.488-2.063-1.811-3.843-1.883-4.146-.16-.664-.042-2.222 0-2.847.021-.33.268-1.072.5-1.238.11-.08 1.132-.185 1.337-.24.32-.088.772-.081 1.064-.138.936-.18 2.656.268 2.773.32 1.401.605.857.816.878.888.023.074-1.95 3.787-1.94 3.961.008.189.08 2.046.266 2.554.054.15.677 1.555.79 1.809.492 1.117-1.061-.185-1.162-.237-.1-.052-2.15-3.345-2.446-4.043-.2-.47-.127-1.178-.087-1.328.053-.207-.106-1.796.21-2.014.215-.148 1.174-.238 1.637-.048.422.173.647.614.604.719-.034.087-.7 2.095-.803 1.927-.033-.056-.035-.69-.123-.754-.09-.065-.578-.16-.639-.088-.06.076-.177.75-.115.98.296 1.117.986.77 1.116.56.195-.308 1.132-2.775 1.115-2.934-.04-.363-.327-.988-.935-1.18-.365-.113-1.952-.05-2.389.163-.67.33-.63 3.18-.503 3.595.128.411 2.24 3.727 2.339 3.982.195.496 1.474 1.677 1.674 1.789.083.047 1.828.68 2.054.363.098-.138.05-.523-.387-.789-.415-.256-1.41-2.965-1.406-3.178.004-.2-.259-1.709-.085-2.022.331-.6 2.707-3.928 2.447-4.196-.35-.36-1.415-2.04-1.914-1.407-.452.572-2.588-.017-3.119-.381-.04-.029-1.3.207-1.855.302M20.068 3c.212.023 1.147.33 1.147.33s.903 1.235 1.134 1.5c.232.265.128.457.128.457L22.034 6.8s.161.124 0 0c-.163-.122-1.358-.021-1.642.003-.286.024.257-.313.386-.432.13-.121.645-.458.579-.652-.062-.193-.84-1.599-.84-1.599s-1.357-.012-2.002.06c-.644.072-1.999 1.332-1.999 1.332l-.493 1.822s.199.335.483.552c.283.217 1.108.144 1.416.12.309-.023.18.314-.076.53-.26.217-1.186.217-1.186.217l.386.12c.426.362 1.208 2.213 1.668 2.646.462.428-.013 2.6-.674 3.219-.663.616-.979 1.947-1.382 2.323-.406.378-.823.23-.406.62.42.388.225.859.292 1.202.042.22.11.622.313.81.199.189 3.254 2.168 4.481 2.259.224.017.227 1.024-1.032 2.263 0 0-.224.714-2.322.777-2.29.067-4.541-.29-5.06-.29-.516 0-2.02-.8-2.02-.8-.287 0-5.065-6.215-5.065-6.644 0-.431-.339-1.594-.339-2.024 0-.43.532-4.366.446-4.842-.067-.375.142-.462.603-.893.46-.43 1.29-1.158 1.605-1.453.142-.132 1.244-.104 2.58-.37l.206-.083-.266-.12s-.43-.505-1.124-.48c-.694.022-.928.071-.567-.073.361-.144 1.01-.601 1.01-.601l1.514.626h1.144l1.434-1.105 3.253-2.47 2.73-.37"/>
    </defs>
    <use fill="#451400" fill-rule="evenodd" xlink:href="#a"/>
</svg>
